<svg id="Layer_1" enable-background="new 0 0 512 512" height="512" viewBox="0 0 512 512" width="512" xmlns="http://www.w3.org/2000/svg"><g><g><path d="m121.56 246.484c0 77.93 63.135 134.581 134.44 134.581s134.439-57.403 134.439-134.581c-4.774-70.153-63.135-125.58-134.44-125.58-71.303 0-129.665 55.427-134.439 125.58z" fill="#ecbb5d"/><path d="m232.289.022c-127.28 11.716-227.576 116.789-232.111 246.285-.178 30.515 7.372 67.868 17.867 94.386l15.27 22.949 49.731-28.83c2.253-1.306 3.179-4.085 2.159-6.483-9.52-22.378-14.793-47.005-14.793-72.868 0-95.052 71.159-173.44 163.004-184.607 2.583-.314 4.52-2.515 4.52-5.119v-60.562c0-3.044-2.618-5.429-5.647-5.151z" fill="#d75950"/><path d="m53.411 393.817c42.355 68.238 120.148 108.587 202.589 108.587 82.44 0 165.051-43.799 202.589-108.586l-47.751-27.682c-2.249-1.304-5.121-.734-6.687 1.343-33.879 44.925-87.629 73.961-148.151 73.961-60.523 0-114.273-29.037-148.151-73.962-1.566-2.077-4.438-2.647-6.687-1.343z" fill="#b3e59f"/><path d="m.179 246.307c-.107 3.039-.179 6.088-.179 9.154 0 38.337 8.402 74.703 23.446 107.368 1.274 2.766 4.651 3.838 7.284 2.311l2.584-1.498c-19.789-34.834-31.646-74.763-33.135-117.335z" fill="#ca4844"/><path d="m256 493.404c-82.441 0-155.768-39.012-202.589-99.587l-4.571 2.65c-2.636 1.528-3.381 4.995-1.617 7.48 46.395 65.392 122.613 108.053 208.777 108.053s162.381-42.661 208.777-108.052c1.764-2.486 1.019-5.953-1.617-7.48l-4.571-2.65c-46.822 60.574-120.148 99.586-202.589 99.586z" fill="#95d6a4"/><path d="m279.712.022c127.279 11.716 227.576 116.789 232.11 246.284.179 30.516-7.371 67.868-17.866 94.386l-15.27 22.949-49.731-28.83c-2.253-1.306-3.179-4.085-2.159-6.483 9.52-22.378 14.793-47.005 14.793-72.868 0-95.052-71.159-173.44-163.004-184.607-2.583-.314-4.52-2.515-4.52-5.119l-.001-60.562c0-3.043 2.618-5.428 5.648-5.15z" fill="#ecbb5d"/><path d="m511.822 246.307c.107 3.04.179 6.088.179 9.154 0 38.337-8.402 74.703-23.446 107.368-1.274 2.766-4.651 3.838-7.284 2.311l-2.584-1.498c19.789-34.834 31.646-74.763 33.135-117.335z" fill="#e5a84c"/><path d="m256 372.065c-71.305 0-129.666-55.427-134.44-125.581-.209 3.073-.325 6.172-.325 9.298 0 74.492 60.336 134.879 134.765 134.879 74.428 0 134.764-60.387 134.764-134.879 0-3.126-.115-6.225-.325-9.298-4.773 70.154-63.134 125.581-134.439 125.581z" fill="#e5a84c"/><path d="m256 341.56c49.494 0 94.841-42.74 94.841-95.075-4.67-48.31-45.347-86.076-94.841-86.076s-90.17 37.766-94.841 86.076c0 55.601 45.348 95.075 94.841 95.075z" fill="#f5de8e"/><path d="m256 332.56c-49.494 0-90.17-37.766-94.841-86.075-.296 3.06-.452 6.161-.452 9.298 0 52.674 42.664 95.374 95.293 95.374s95.293-42.7 95.293-95.374c0-3.137-.156-6.238-.452-9.298-4.671 48.309-45.347 86.075-94.841 86.075z" fill="#edd17a"/></g><g><path d="m236.632 286.453c-3.586-2.348-8.391-1.341-10.738 2.247-2.345 3.588-1.34 8.4 2.245 10.747 7.645 5.005 13.016 6.725 19.55 7.262v5.213c0 4.288 3.472 7.764 7.757 7.764s7.757-3.476 7.757-7.764v-5.945c13.318-3.293 21.858-14.638 23.737-25.826 2.442-14.537-5.144-27.172-19.327-32.19-1.451-.513-2.93-1.047-4.41-1.598v-26.038c3.057 1.085 4.833 2.595 4.976 2.72 1.376 1.245 3.2 2.001 5.201 2.001 4.284 0 7.757-3.476 7.757-7.764 0-2.266-.972-4.304-2.519-5.724-.036-.033-.142-.128-.289-.253-.007-.006-.014-.013-.022-.019-1.326-1.132-6.751-5.387-15.105-6.991v-4.651c0-4.288-3.473-7.764-7.757-7.764s-7.757 3.476-7.757 7.764v5.195c-.554.141-1.112.294-1.677.464-9.406 2.836-16.43 10.874-18.333 20.979-1.744 9.265 1.255 18.227 7.83 23.388 3.154 2.476 7.005 4.745 12.18 7.109v34.313c-3.788-.5-6.621-1.735-11.056-4.639zm26.572-23.564c9.203 3.666 8.982 11.447 8.438 14.687-.763 4.54-3.622 9.33-8.438 11.909zm-18.119-25.437c-1.97-1.546-2.817-4.802-2.159-8.295.499-2.65 2.002-5.729 4.764-7.636v17.733c-.944-.589-1.824-1.188-2.605-1.802z" fill="#e5a84c"/></g></g></svg>