<?xml version="1.0" encoding="iso-8859-1"?>
<!-- Uploaded to: SVG Repo, www.svgrepo.com, Generator: SVG Repo Mixer Tools -->
<svg height="800px" width="800px" version="1.1" id="Layer_1" xmlns="http://www.w3.org/2000/svg" xmlns:xlink="http://www.w3.org/1999/xlink" 
	 viewBox="0 0 512.001 512.001" xml:space="preserve">
<path style="fill:#6A82A1;" d="M458.158,34.373H53.842C24.153,34.373,0,58.526,0,88.215v335.572
	c0,29.688,24.153,53.842,53.842,53.842h404.317c29.688,0,53.842-24.153,53.842-53.842V88.215
	C512,58.525,487.847,34.373,458.158,34.373z"/>
<path style="fill:#36495E;" d="M458.158,34.373H256.001v443.255H458.16c29.688,0,53.842-24.153,53.842-53.842V88.215
	C512,58.525,487.847,34.373,458.158,34.373z"/>
<g>
	<path style="fill:#FFDA79;" d="M232.893,304.628h-63.026c-1.859,0-3.365,1.508-3.365,3.365v29.572c0,1.859,1.506,3.365,3.365,3.365
		h63.026c1.859,0,3.365-1.506,3.365-3.365v-29.572C236.258,306.135,234.752,304.628,232.893,304.628z"/>
	<path style="fill:#FFDA79;" d="M141.372,362.676H78.346c-1.859,0-3.365,1.508-3.365,3.365v29.573c0,1.859,1.506,3.365,3.365,3.365
		h63.026c1.859,0,3.365-1.506,3.365-3.365v-29.573C144.737,364.184,143.231,362.676,141.372,362.676z"/>
	<path style="fill:#FFDA79;" d="M232.893,246.58h-63.026c-1.859,0-3.365,1.506-3.365,3.365v29.571c0,1.859,1.506,3.365,3.365,3.365
		h63.026c1.859,0,3.365-1.506,3.365-3.365v-29.571C236.258,248.087,234.752,246.58,232.893,246.58z"/>
	<path style="fill:#FFDA79;" d="M141.372,304.628H78.346c-1.859,0-3.365,1.508-3.365,3.365v29.572c0,1.859,1.506,3.365,3.365,3.365
		h63.026c1.859,0,3.365-1.506,3.365-3.365v-29.572C144.737,306.135,143.231,304.628,141.372,304.628z"/>
	<path style="fill:#FFDA79;" d="M141.372,246.58H78.346c-1.859,0-3.365,1.506-3.365,3.365v29.571c0,1.859,1.506,3.365,3.365,3.365
		h63.026c1.859,0,3.365-1.506,3.365-3.365v-29.571C144.737,248.087,143.231,246.58,141.372,246.58z"/>
	<path style="fill:#FFDA79;" d="M232.893,362.676h-63.026c-1.859,0-3.365,1.508-3.365,3.365v29.573c0,1.859,1.506,3.365,3.365,3.365
		h63.026c1.859,0,3.365-1.506,3.365-3.365v-29.573C236.258,364.184,234.752,362.676,232.893,362.676z"/>
	<path style="fill:#FFDA79;" d="M416.828,109.354H95.172c-11.151,0-20.191,9.04-20.191,20.191v58.576
		c0,11.151,9.04,20.191,20.191,20.191h321.656c11.151,0,20.191-9.04,20.191-20.191v-58.576
		C437.019,118.394,427.979,109.354,416.828,109.354z"/>
</g>
<g>
	<path style="fill:#FFD155;" d="M324.416,362.676H261.39c-1.859,0-3.365,1.508-3.365,3.365v29.573c0,1.859,1.506,3.365,3.365,3.365
		h63.026c1.859,0,3.365-1.506,3.365-3.365v-29.573C327.781,364.184,326.273,362.676,324.416,362.676z"/>
	<path style="fill:#FFD155;" d="M416.828,109.354H256.001v98.957h160.828c11.151,0,20.191-9.04,20.191-20.191v-58.576
		C437.019,118.394,427.979,109.354,416.828,109.354z"/>
	<path style="fill:#FFD155;" d="M324.416,304.628H261.39c-1.859,0-3.365,1.508-3.365,3.365v29.572c0,1.859,1.506,3.365,3.365,3.365
		h63.026c1.859,0,3.365-1.506,3.365-3.365v-29.572C327.781,306.135,326.273,304.628,324.416,304.628z"/>
</g>
<path style="fill:#FF9392;" d="M416.828,246.58h-34.257c-11.151,0-20.191,9.04-20.191,20.191v112.017
	c0,11.151,9.04,20.191,20.191,20.191h34.257c11.151,0,20.191-9.04,20.191-20.191V266.771
	C437.019,255.619,427.979,246.58,416.828,246.58z"/>
<path style="fill:#FFD155;" d="M324.416,246.58H261.39c-1.859,0-3.365,1.506-3.365,3.365v29.571c0,1.859,1.506,3.365,3.365,3.365
	h63.026c1.859,0,3.365-1.506,3.365-3.365v-29.571C327.781,248.087,326.273,246.58,324.416,246.58z"/>
</svg>